<?xml version="1.0" encoding="UTF-8"?>
<svg version="1.1" xmlns="http://www.w3.org/2000/svg" width="759" height="329">
<path d="M0 0 C1.02421555 -0.0033284 2.04843109 -0.0066568 3.10368347 -0.01008606 C5.25930333 -0.01512215 7.4149309 -0.01749542 9.57055664 -0.01733398 C12.83558236 -0.01951795 16.10026835 -0.03770259 19.36523438 -0.05664062 C48.14825608 -0.13576854 48.14825608 -0.13576854 57.23046875 8.16796875 C62.28583706 16.53547492 62.48523613 26.50189645 62.40625 36.01953125 C62.40699776 37.7896608 62.40699776 37.7896608 62.40776062 39.59555054 C62.40543651 42.07120462 62.39580748 44.54686181 62.37915039 47.02246094 C62.35548783 50.78993044 62.35861177 54.55669334 62.36523438 58.32421875 C62.35965844 60.74349376 62.3525491 63.16276582 62.34375 65.58203125 C62.34466141 66.6958316 62.34557281 67.80963196 62.34651184 68.95718384 C62.24977789 79.73119004 61.48959494 88.22619473 53.98046875 96.41796875 C37.30069503 106.35485522 5.92277697 101.80472145 -12.58203125 100.48046875 C-13.9750647 100.40058716 -13.9750647 100.40058716 -15.39624023 100.3190918 C-21.60690872 99.79342036 -26.11495616 98.16355789 -30.95703125 94.16796875 C-39.36814759 83.76474591 -37.2718556 66.30793051 -37.21777344 53.65478516 C-37.20705041 50.67329577 -37.21772533 47.69240871 -37.23046875 44.7109375 C-37.25501092 15.38990579 -37.25501092 15.38990579 -30.78515625 6.94140625 C-22.71848511 -0.88395422 -10.46315372 0.01205539 0 0 Z M32.23046875 21.29296875 C29.75140526 23.98117767 29.75140526 23.98117767 29.91796875 27.29296875 C30.84323128 30.28079965 30.84323128 30.28079965 33.23046875 32.16796875 C36.06485014 33.44505745 36.06485014 33.44505745 39.23046875 32.54296875 C42.29340465 31.33817518 42.29340465 31.33817518 44.04296875 28.16796875 C43.89774801 24.68267102 43.68600943 22.83318324 41.23046875 20.29296875 C37.44041293 18.34379719 35.55392264 18.7819147 32.23046875 21.29296875 Z M-3.89453125 44.29296875 C-7.99338832 50.0065271 -7.78575362 56.36922695 -6.95703125 63.16796875 C-4.67465312 68.46544419 -0.28439498 72.51396766 4.7109375 75.3125 C10.32534384 77.3720561 16.08478557 77.35302406 21.63671875 75.12890625 C27.28111788 71.76108144 30.95018469 67.41613655 33.04296875 61.16796875 C34.05949932 55.31384182 33.38388481 50.18261486 30.45703125 44.9921875 C27.46491346 41.13219025 23.38610109 38.33953492 19.04296875 36.16796875 C9.10160872 35.09736075 2.73770263 36.75633934 -3.89453125 44.29296875 Z " fill="#027CF9" transform="translate(206.95703125,119.83203125)"/>
<path d="M0 0 C7.11387139 6.03984107 7.11387139 6.03984107 8 11 C-7 21 -7 21 -10 21 C-11.5078125 19.390625 -11.5078125 19.390625 -13.125 17.25 C-17.63309352 11.94193163 -21.99878649 9.51283911 -28.92578125 8.625 C-37.50232745 8.27627131 -43.18611056 10.50630306 -50.25 15.125 C-55.47651076 20.58907943 -58.62515892 27.18644753 -59.06640625 34.78125 C-58.79786001 43.75385386 -55.49228804 50.50771196 -49.1875 56.8125 C-41.45879275 62.11651478 -34.24438 63.04972813 -25 62 C-20.52439428 60.63618881 -16.87691119 58.58460746 -13 56 C-12.505 54.515 -12.505 54.515 -12 53 C-10.4375 51.3125 -10.4375 51.3125 -9 50 C-9.69150146 49.97494385 -10.38300293 49.9498877 -11.09545898 49.92407227 C-14.20967866 49.80847839 -17.32356789 49.68558758 -20.4375 49.5625 C-21.52611328 49.52318359 -22.61472656 49.48386719 -23.73632812 49.44335938 C-25.28803711 49.38051758 -25.28803711 49.38051758 -26.87109375 49.31640625 C-27.82943115 49.27974854 -28.78776855 49.24309082 -29.77514648 49.20532227 C-32 49 -32 49 -33 48 C-33.09981214 45.3226862 -33.13879875 42.67695825 -33.125 40 C-33.13080078 38.87464844 -33.13080078 38.87464844 -33.13671875 37.7265625 C-33.12661053 32.12661053 -33.12661053 32.12661053 -32 31 C-30.58774954 30.9071274 -29.17091066 30.88253228 -27.75561523 30.88647461 C-26.85475693 30.88655014 -25.95389862 30.88662567 -25.02574158 30.88670349 C-24.04658279 30.89186478 -23.06742401 30.89702606 -22.05859375 30.90234375 C-21.06118668 30.9037587 -20.0637796 30.90517365 -19.03614807 30.90663147 C-15.83656876 30.91224886 -12.63705831 30.92480429 -9.4375 30.9375 C-7.27408955 30.94251276 -5.11067801 30.94707605 -2.94726562 30.95117188 C2.36851325 30.96222393 7.68425171 30.97897896 13 31 C13.04419887 33.5327466 13.07626498 36.06470696 13.1015625 38.59765625 C13.11517822 39.30684204 13.12879395 40.01602783 13.14282227 40.7467041 C13.22811285 52.16580163 8.71403082 61.95175228 0.9296875 70.19140625 C-8.80360638 79.39903443 -18.0845213 81.19938572 -31.0625 81.3125 C-32.68575195 81.35600586 -32.68575195 81.35600586 -34.34179688 81.40039062 C-44.33383342 81.47831293 -53.014341 79.21106811 -61 73 C-61.62390625 72.56558594 -62.2478125 72.13117188 -62.890625 71.68359375 C-71.44331341 65.17114589 -76.15138883 54.43429989 -78 44 C-79.12983264 33.51286804 -78.03924787 23.79049484 -74 14 C-73.67257812 13.18015625 -73.34515625 12.3603125 -73.0078125 11.515625 C-68.3022988 1.55504856 -58.01175353 -5.09377485 -48 -9 C-31.56372612 -14.71958248 -13.47732825 -10.40737141 0 0 Z " fill="#0F0F0F" transform="translate(400,138)"/>
<path d="M0 0 C5.48535102 3.35813428 9.70182545 9.34624478 11.4375 15.5 C12.40670858 21.0292049 12.56954779 26.34421333 12.53515625 31.93359375 C12.5337413 32.81153091 12.53232635 33.68946808 12.53086853 34.5940094 C12.52530821 37.37520882 12.51276321 40.15632526 12.5 42.9375 C12.49497987 44.83268112 12.49041786 46.72786352 12.48632812 48.62304688 C12.4753518 53.24872948 12.45811482 57.87435071 12.4375 62.5 C8.65082311 65.05698285 5.0252666 64.53499684 0.6875 64.125 C-0.35857422 64.03992188 -0.35857422 64.03992188 -1.42578125 63.953125 C-3.13889312 63.81232128 -4.85084611 63.65754028 -6.5625 63.5 C-6.57708252 62.34999512 -6.59166504 61.19999023 -6.60668945 60.01513672 C-6.66483762 55.73211195 -6.74206924 51.44960384 -6.82495117 47.16699219 C-6.85812296 45.31649181 -6.88617887 43.46589214 -6.90893555 41.61523438 C-6.9426245 38.94878997 -6.9949466 36.2832491 -7.05078125 33.6171875 C-7.05717117 32.79507782 -7.0635611 31.97296814 -7.07014465 31.12594604 C-7.19494537 26.20585779 -7.86660811 22.77419747 -10.5625 18.5 C-14.12148404 15.92557097 -17.2518414 16.30936516 -21.4375 16.89453125 C-23.82788404 17.40725256 -23.82788404 17.40725256 -26.0625 19.75 C-28.85380777 24.86739758 -28.7533516 30.1412953 -28.87890625 35.86328125 C-28.89968735 36.65526413 -28.92046844 37.44724701 -28.94187927 38.26322937 C-29.00697804 40.77956928 -29.06607423 43.29600872 -29.125 45.8125 C-29.168223 47.52409861 -29.21183848 49.23568735 -29.25585938 50.94726562 C-29.36261847 55.13140984 -29.46399635 59.31565362 -29.5625 63.5 C-32.54172593 63.52683987 -35.52071295 63.54676037 -38.5 63.5625 C-39.35013672 63.57087891 -40.20027344 63.57925781 -41.07617188 63.58789062 C-41.88505859 63.59111328 -42.69394531 63.59433594 -43.52734375 63.59765625 C-44.2762085 63.60289307 -45.02507324 63.60812988 -45.79663086 63.61352539 C-47.5625 63.5 -47.5625 63.5 -48.5625 62.5 C-48.66170863 60.57238183 -48.69049365 58.64110646 -48.69189453 56.7109375 C-48.69504669 55.4729541 -48.69819885 54.2349707 -48.70144653 52.95947266 C-48.69965675 51.59798141 -48.6976058 50.23649049 -48.6953125 48.875 C-48.69598559 47.48876936 -48.69695566 46.10253883 -48.69821167 44.71630859 C-48.6996884 41.80760578 -48.6975349 38.89893363 -48.69287109 35.99023438 C-48.68717381 32.25403402 -48.69045294 28.51790548 -48.69644356 24.78170776 C-48.70004985 21.91820734 -48.69891027 19.05472407 -48.69631577 16.19122314 C-48.69564668 14.81325268 -48.69647426 13.43528068 -48.69879532 12.05731201 C-48.70132292 10.13456246 -48.69679024 8.21180748 -48.69189453 6.2890625 C-48.69109894 5.19287598 -48.69030334 4.09668945 -48.68948364 2.96728516 C-48.5625 0.5 -48.5625 0.5 -47.5625 -0.5 C-44.69982433 -0.57325168 -41.861781 -0.59238205 -39 -0.5625 C-38.19369141 -0.55798828 -37.38738281 -0.55347656 -36.55664062 -0.54882812 C-34.55856244 -0.53700518 -32.56052217 -0.51906914 -30.5625 -0.5 C-29.9025 0.82 -29.2425 2.14 -28.5625 3.5 C-27.1703125 2.5409375 -27.1703125 2.5409375 -25.75 1.5625 C-18.86761312 -2.89080916 -7.60126892 -3.35698063 0 0 Z " fill="#101010" transform="translate(530.5625,154.5)"/>
<path d="M0 0 C0 5.61 0 11.22 0 17 C4.29 17 8.58 17 13 17 C13 22.94 13 28.88 13 35 C8.71 35 4.42 35 0 35 C0.1134127 39.45890972 0.24017333 43.91673148 0.375 48.375 C0.4059375 49.64601562 0.436875 50.91703125 0.46875 52.2265625 C0.50742187 53.43828125 0.54609375 54.65 0.5859375 55.8984375 C0.63306885 57.57945557 0.63306885 57.57945557 0.68115234 59.29443359 C0.73411203 62.14710412 0.73411203 62.14710412 3 64 C5.40744096 64.20507047 5.40744096 64.20507047 8.0625 64.0625 C9.70756977 64.00821506 11.35416024 63.97968099 13 64 C14.98784899 65.98784899 14.22997787 69.72700407 14.25 72.4375 C14.270625 73.13166016 14.29125 73.82582031 14.3125 74.54101562 C14.328125 76.55859375 14.328125 76.55859375 14 80 C8.42917208 83.71388528 0.72963365 82.59115231 -5.7109375 81.5703125 C-11.40274932 79.99680821 -14.8436919 76.95991273 -18 72 C-19.21077701 68.36766898 -19.12444164 65.04878013 -19.09765625 61.26953125 C-19.0962413 60.51911057 -19.09482635 59.76868988 -19.09336853 58.99552917 C-19.0877756 56.6011454 -19.07522444 54.20685547 -19.0625 51.8125 C-19.05748408 50.18815239 -19.05292134 48.56380332 -19.04882812 46.93945312 C-19.03780848 42.95959931 -19.02054873 38.97981556 -19 35 C-22.63 35 -26.26 35 -30 35 C-30 29.06 -30 23.12 -30 17 C-26.37 17 -22.74 17 -19 17 C-19 12.71 -19 8.42 -19 4 C-16.39898714 3.13499112 -13.79493589 2.28273072 -11.1875 1.4375 C-10.44951172 1.19064453 -9.71152344 0.94378906 -8.95117188 0.68945312 C-3.33984375 -1.11328125 -3.33984375 -1.11328125 0 0 Z " fill="#0E0E0E" transform="translate(578,137)"/>
<path d="M0 0 C0 30.36 0 60.72 0 92 C-5.94 92 -11.88 92 -18 92 C-18 61.64 -18 31.28 -18 0 C-2 -1 -2 -1 0 0 Z " fill="#060606" transform="translate(440,126)"/>
<path d="M0 0 C5.94 0 11.88 0 18 0 C18 21.12 18 42.24 18 64 C11.73 64 5.46 64 -1 64 C-1.02255425 55.8030903 -1.04091696 47.60620455 -1.05181217 39.40927219 C-1.0570402 35.60348423 -1.06413638 31.79771852 -1.07543945 27.99194336 C-1.0862712 24.32207456 -1.09227744 20.65222722 -1.09487724 16.98234367 C-1.09673097 15.57925008 -1.1003506 14.17615771 -1.10573006 12.7730732 C-1.11294419 10.8143032 -1.11340809 8.8555118 -1.11352539 6.89672852 C-1.115746 5.77976089 -1.11796661 4.66279327 -1.12025452 3.51197815 C-1 1 -1 1 0 0 Z " fill="#131313" transform="translate(453,154)"/>
<path d="M0 0 C3.13085094 2.86249229 4.31130794 5.88502659 5.1875 10 C5.01512287 14.39561684 3.89271545 17.52186585 1.1875 21 C-2.7381927 23.28998741 -6.33660983 23.47114633 -10.8125 23 C-13.86607079 21.38679279 -16.05083566 19.96939098 -18.1875 17.25 C-19.63649408 12.03362133 -19.51303657 8.35103481 -17.0625 3.625 C-12.38975827 -1.82653202 -6.6505214 -2.36462983 0 0 Z " fill="#037BF8" transform="translate(226.8125,165)"/>
<path d="M0 0 C2.88843774 2.25439043 3.79076279 3.77676709 4.40625 7.375 C4.68498473 12.05774341 4.56530753 14.27105082 1.625 18.0625 C-2.5252825 21.12580375 -5.89563083 21.70208795 -11 21 C-14.75212276 18.98497111 -16.63644095 17.54533858 -19 14 C-19.5342821 9.99288429 -19.86892827 7.47548534 -17.796875 3.95703125 C-12.47652744 -2.55905099 -7.77469435 -2.82456786 0 0 Z " fill="#1B1B1B" transform="translate(469,128)"/>
<path d="M0 0 C2.24002956 3.36004434 2.25402469 4.48488302 2.27124023 8.41430664 C2.28142685 9.52298599 2.29161346 10.63166534 2.30210876 11.77394104 C2.30424881 12.97389206 2.30638885 14.17384308 2.30859375 15.41015625 C2.33376831 17.95247611 2.3591661 20.49479376 2.38476562 23.03710938 C2.41342912 27.04387441 2.43744377 31.05054975 2.45629883 35.05737305 C2.47806166 38.92517789 2.51752708 42.79251504 2.55859375 46.66015625 C2.55870956 47.84593765 2.55882538 49.03171906 2.5589447 50.25343323 C2.63842934 56.99144397 2.85409961 63.88078649 6 70 C6.99 70.33 7.98 70.66 9 71 C9 71.66 9 72.32 9 73 C24.42023731 76.73879285 39.78364366 76.34347377 55.5625 76.1875 C58.23111218 76.17068716 60.89971917 76.15873859 63.56835938 76.14648438 C70.04575619 76.11374288 76.52283845 76.06379801 83 76 C83 76.33 83 76.66 83 77 C63.10764404 79.36512088 43.36295123 79.72097067 23.375 78.3125 C22.44574707 78.25932617 21.51649414 78.20615234 20.55908203 78.15136719 C14.34918774 77.62485385 9.84158809 75.99518727 5 72 C-3.50653565 61.47875854 -1.28533965 43.81953138 -1.20581055 31.04736328 C-1.18736845 27.97810677 -1.18530278 24.90915035 -1.18554688 21.83984375 C-1.18063665 19.87239324 -1.17481051 17.90494475 -1.16796875 15.9375 C-1.16685593 15.02806641 -1.1657431 14.11863281 -1.16459656 13.18164062 C-1.13099616 8.67711868 -0.91218441 4.43307975 0 0 Z " fill="#4C8CCE" transform="translate(171,142)"/>
<path d="M0 0 C1.02421555 -0.0033284 2.04843109 -0.0066568 3.10368347 -0.01008606 C5.25930333 -0.01512215 7.4149309 -0.01749542 9.57055664 -0.01733398 C12.83558236 -0.01951795 16.10026835 -0.03770259 19.36523438 -0.05664062 C47.47988063 -0.13460468 47.47988063 -0.13460468 55.04296875 6.16796875 C54.38296875 6.49796875 53.72296875 6.82796875 53.04296875 7.16796875 C51.41588971 6.59081706 49.81428969 5.94121322 48.22827148 5.25927734 C41.75045125 2.81261412 35.94361619 2.62000549 29.078125 2.70703125 C27.28452797 2.70840591 27.28452797 2.70840591 25.45469666 2.70980835 C22.94786568 2.71581136 20.44104076 2.73145669 17.93432617 2.75634766 C14.09201797 2.7930974 10.25066964 2.79736477 6.40820312 2.796875 C3.9648354 2.80669853 1.52147419 2.81835218 -0.921875 2.83203125 C-2.06978012 2.8342569 -3.21768524 2.83648254 -4.40037537 2.83877563 C-5.46570999 2.85153534 -6.53104462 2.86429504 -7.62866211 2.87744141 C-8.5636705 2.885065 -9.49867889 2.8926886 -10.46202087 2.90054321 C-13.13014366 3.18652365 -14.71686237 3.70616218 -16.95703125 5.16796875 C-17.94703125 6.65296875 -17.94703125 6.65296875 -18.95703125 8.16796875 C-19.94703125 8.16796875 -20.93703125 8.16796875 -21.95703125 8.16796875 C-21.95703125 7.50796875 -21.95703125 6.84796875 -21.95703125 6.16796875 C-22.94703125 6.49796875 -23.93703125 6.82796875 -24.95703125 7.16796875 C-25.36953125 8.09609375 -25.78203125 9.02421875 -26.20703125 9.98046875 C-28.51674574 14.18744871 -30.7073712 15.08322986 -34.95703125 17.16796875 C-34.50695623 12.2171435 -32.41694019 8.63611556 -28.95703125 5.16796875 C-20.27387987 -0.43569289 -9.97978325 0.01149847 0 0 Z " fill="#77B3D7" transform="translate(206.95703125,119.83203125)"/>
<path d="M0 0 C5.76134026 5.05346815 6.63506045 11.71918588 7.26626587 19.12335205 C7.37631626 22.37051955 7.39024341 25.60268825 7.36328125 28.8515625 C7.36377975 30.03164886 7.36427826 31.21173523 7.36479187 32.42758179 C7.36246776 34.90323587 7.35283873 37.37889306 7.33618164 39.85449219 C7.31251908 43.62196169 7.31564302 47.38872459 7.32226562 51.15625 C7.31668969 53.57552501 7.30958035 55.99479707 7.30078125 58.4140625 C7.30214836 60.08476303 7.30214836 60.08476303 7.30354309 61.78921509 C7.22192995 70.87909976 7.02722137 79.73188012 1 87 C-1.25 88.875 -1.25 88.875 -3 90 C-2.67 88.68 -2.34 87.36 -2 86 C-1.34 86 -0.68 86 0 86 C5.04614897 77.15488155 4.28331383 65.35116966 4.1953125 55.48046875 C4.1924826 54.25588455 4.18965271 53.03130035 4.18673706 51.76960754 C4.17565968 47.90880001 4.15057897 44.04823585 4.125 40.1875 C4.1149541 37.54883151 4.10583109 34.91015933 4.09765625 32.27148438 C4.07576127 25.84757506 4.04241024 19.42380492 4 13 C3.34 13 2.68 13 2 13 C2.33 10.69 2.66 8.38 3 6 C2.34 6 1.68 6 1 6 C0.67 4.02 0.34 2.04 0 0 Z " fill="#2B7ACA" transform="translate(262,127)"/>
<path d="M0 0 C3.13085094 2.86249229 4.31130794 5.88502659 5.1875 10 C5.01512287 14.39561684 3.89271545 17.52186585 1.1875 21 C-2.7381927 23.28998741 -6.33660983 23.47114633 -10.8125 23 C-13.86607079 21.38679279 -16.05083566 19.96939098 -18.1875 17.25 C-19.63649408 12.03362133 -19.51303657 8.35103481 -17.0625 3.625 C-12.38975827 -1.82653202 -6.6505214 -2.36462983 0 0 Z M-9.8125 1 C-9.8125 1.99 -9.8125 2.98 -9.8125 4 C-10.616875 4.144375 -11.42125 4.28875 -12.25 4.4375 C-14.73353706 4.74135249 -14.73353706 4.74135249 -15.8125 6 C-15.88455511 7.68608966 -15.89636068 9.37500659 -15.875 11.0625 C-15.86597656 11.98160156 -15.85695312 12.90070313 -15.84765625 13.84765625 C-15.83605469 14.55792969 -15.82445312 15.26820313 -15.8125 16 C-13.8325 16.99 -13.8325 16.99 -11.8125 18 C-11.8125 18.66 -11.8125 19.32 -11.8125 20 C-5.34923535 20.45356243 -2.20318413 19.59378942 3.1875 16 C2.95942509 14.20541055 2.70427697 12.41424551 2.4375 10.625 C2.29828125 9.62726563 2.1590625 8.62953125 2.015625 7.6015625 C1.44363111 4.85438953 1.44363111 4.85438953 -0.890625 3.6484375 C-1.52484375 3.43445313 -2.1590625 3.22046875 -2.8125 3 C-2.8125 2.34 -2.8125 1.68 -2.8125 1 C-5.1225 1 -7.4325 1 -9.8125 1 Z " fill="#549BDD" transform="translate(226.8125,165)"/>
<path d="M0 0 C1.0725 0.598125 2.145 1.19625 3.25 1.8125 C3.953125 4.42578125 3.953125 4.42578125 4.25 6.8125 C3.48429687 6.27109375 3.48429687 6.27109375 2.703125 5.71875 C-3.67991537 1.64446891 -9.24685188 0.5364544 -16.75 1.8125 C-21.94085374 3.88040108 -25.67462308 7.13792708 -28.75 11.8125 C-30.74825328 17.80725983 -31.12450404 24.88316341 -28.41015625 30.66796875 C-26.95222445 32.82570781 -25.45647464 34.84700689 -23.75 36.8125 C-24.74 36.8125 -25.73 36.8125 -26.75 36.8125 C-27.08 37.4725 -27.41 38.1325 -27.75 38.8125 C-28.02263672 37.85537109 -28.02263672 37.85537109 -28.30078125 36.87890625 C-28.55214844 36.05261719 -28.80351562 35.22632813 -29.0625 34.375 C-29.30613281 33.55128906 -29.54976562 32.72757813 -29.80078125 31.87890625 C-30.11402344 31.19699219 -30.42726562 30.51507813 -30.75 29.8125 C-31.74 29.4825 -32.73 29.1525 -33.75 28.8125 C-33.8583667 26.0822611 -33.93746694 23.35635457 -34 20.625 C-34.03351563 19.85607422 -34.06703125 19.08714844 -34.1015625 18.29492188 C-34.1709807 14.25131179 -34.0457051 12.2896605 -31.859375 8.76171875 C-29.75 6.8125 -29.75 6.8125 -27.75 6.8125 C-27.75 5.8225 -27.75 4.8325 -27.75 3.8125 C-18.94454796 -1.75302273 -10.07153358 -3.1225364 0 0 Z " fill="#3683D9" transform="translate(230.75,155.1875)"/>
<path d="M0 0 C5.4375 2.5375 5.4375 2.5375 6.625 5.625 C7.84600153 13.35800969 6.69842043 20.67416783 4 28 C1.75 30.5 1.75 30.5 -1 32 C-2.423125 33.11375 -2.423125 33.11375 -3.875 34.25 C-9.3989546 37.3297269 -16.92941363 36.91529905 -23 36 C-25.9609375 33.96875 -25.9609375 33.96875 -28 32 C-27.67 31.34 -27.34 30.68 -27 30 C-26.2575 30.495 -25.515 30.99 -24.75 31.5 C-19.77645469 33.9514157 -14.38581603 33.72896065 -9 33 C-3.92430152 31.27476259 -0.84980466 28.28963044 2 23.8125 C4.42274838 18.86023805 4.95424054 14.42143739 4 9 C2.91175299 5.85202367 1.58403099 2.92762871 0 0 Z " fill="#2A82D7" transform="translate(235,162)"/>
<path d="M0 0 C-0.969375 0.37125 -1.93875 0.7425 -2.9375 1.125 C-6.26023529 2.7074288 -6.26023529 2.7074288 -7 6 C-7.2773501 9.18490007 -7.2773501 9.18490007 -5 12 C-2.25530571 12.93897436 -0.57004041 13.1425101 2.25 12.4375 C4.25797993 11.03985868 4.25797993 11.03985868 5 8.1875 C5 4.15423643 3.75202027 2.83541482 1 0 C3.4375 0.375 3.4375 0.375 6 1 C8.01124138 5.02248275 7.21604913 9.25733112 6 13.4375 C5.67 14.283125 5.34 15.12875 5 16 C3.41986783 16.25028811 1.83557694 16.47440946 0.25 16.6875 C-1.07257813 16.87892578 -1.07257813 16.87892578 -2.421875 17.07421875 C-5.57998221 16.98330354 -6.63632278 15.99884878 -9 14 C-9.66 14 -10.32 14 -11 14 C-11.40528634 3.66519824 -11.40528634 3.66519824 -9 0 C-5.70111637 -1.21537818 -3.30816138 -1.10272046 0 0 Z " fill="#0D76DB" transform="translate(245,139)"/>
<path d="M0 0 C0.33 0 0.66 0 1 0 C1.00586624 0.69189423 1.01173248 1.38378845 1.01777649 2.09664917 C1.0759819 8.65714868 1.14821453 15.21733201 1.23571491 21.77750969 C1.28020492 25.14917426 1.31950594 28.52072394 1.34643555 31.89257812 C1.38017264 35.7802397 1.43250019 39.66728714 1.48828125 43.5546875 C1.49467117 44.74988007 1.5010611 45.94507263 1.50764465 47.17648315 C1.62483619 53.92839717 1.84942338 60.86796782 5 67 C5.99 67.33 6.98 67.66 8 68 C8 68.66 8 69.32 8 70 C10.31 70.66 12.62 71.32 15 72 C14.505 72.99 14.505 72.99 14 74 C8.00507444 72.46641439 4.93068108 69.7079916 1.37675476 64.72322083 C-0.26088938 61.48396082 -0.36268006 59.35863722 -0.34057617 55.7409668 C-0.34034958 54.50005783 -0.34012299 53.25914886 -0.33988953 51.9806366 C-0.32457212 50.63682693 -0.30892417 49.29302099 -0.29296875 47.94921875 C-0.28736898 46.5663143 -0.28310068 45.18340388 -0.28010559 43.80049133 C-0.26868664 40.17210269 -0.2392455 36.54407801 -0.20599365 32.91583252 C-0.17522872 29.20891238 -0.16158659 25.50193306 -0.14648438 21.79492188 C-0.11437241 14.52978253 -0.06321247 7.26494239 0 0 Z " fill="#1270D6" transform="translate(172,145)"/>
<path d="M0 0 C-2 3 -2 3 -5 4 C-5.33 4.66 -5.66 5.32 -6 6 C-6.99 6 -7.98 6 -9 6 C-9 5.34 -9 4.68 -9 4 C-9.99 4.33 -10.98 4.66 -12 5 C-12.61875 6.3921875 -12.61875 6.3921875 -13.25 7.8125 C-15.55971449 12.01947996 -17.75033995 12.91526111 -22 15 C-21.54990249 10.04892739 -19.45982789 6.46802653 -16 3 C-10.57933067 -0.56302422 -6.262806 -1.5990143 0 0 Z " fill="#4595DD" transform="translate(194,122)"/>
<path d="M0 0 C-0.10441406 1.90072266 -0.10441406 1.90072266 -0.2109375 3.83984375 C-0.88350591 16.10752326 -0.88350591 16.10752326 4.6875 26.69921875 C5.120625 27.12847656 5.55375 27.55773437 6 28 C5.01 28 4.02 28 3 28 C2.67 28.66 2.34 29.32 2 30 C1.81824219 29.36191406 1.63648438 28.72382813 1.44921875 28.06640625 C1.19785156 27.24011719 0.94648438 26.41382813 0.6875 25.5625 C0.44386719 24.73878906 0.20023438 23.91507813 -0.05078125 23.06640625 C-0.36402344 22.38449219 -0.67726562 21.70257813 -1 21 C-1.99 20.67 -2.98 20.34 -4 20 C-4.08089542 17.22858283 -4.14044062 14.45952181 -4.1875 11.6875 C-4.22520508 10.50897461 -4.22520508 10.50897461 -4.26367188 9.30664062 C-4.27333984 8.54931641 -4.28300781 7.79199219 -4.29296875 7.01171875 C-4.3086792 6.31522217 -4.32438965 5.61872559 -4.34057617 4.90112305 C-3.94194268 2.67591946 -2.59480325 0 0 0 Z " fill="#2488DF" transform="translate(201,164)"/>
<path d="M0 0 C4.01169279 -0.20398438 7.02238028 -0.34759812 10.8125 1 C13.93063011 3.85086182 15.15614842 6.88912671 16 11 C15.6875 14.5 15.6875 14.5 15 17 C14.34 16.67 13.68 16.34 13 16 C12.39625208 13.46425873 12.04218874 10.92544828 11.66015625 8.34765625 C11.17551797 5.64696956 11.17551797 5.64696956 8 4 C8 3.34 8 2.68 8 2 C5.36 1.67 2.72 1.34 0 1 C0 0.67 0 0.34 0 0 Z " fill="#73ACE3" transform="translate(216,164)"/>
<path d="M0 0 C2.4375 0.375 2.4375 0.375 5 1 C7.01124138 5.02248275 6.21604913 9.25733112 5 13.4375 C4.67 14.283125 4.34 15.12875 4 16 C1.36 16 -1.28 16 -4 16 C-4 15.34 -4 14.68 -4 14 C-4.66 13.67 -5.32 13.34 -6 13 C-2.97265625 12.75585938 -2.97265625 12.75585938 0.0546875 12.51171875 C2.39519216 12.12606964 2.39519216 12.12606964 4 9 C3.79409746 5.70555942 3.57408028 3.68889633 1.4375 1.125 C0.963125 0.75375 0.48875 0.3825 0 0 Z " fill="#338CDF" transform="translate(246,139)"/>
<path d="M0 0 C-2 3 -2 3 -5 4 C-5.33 4.66 -5.66 5.32 -6 6 C-6.99 6 -7.98 6 -9 6 C-9 5.34 -9 4.68 -9 4 C-9.66 4 -10.32 4 -11 4 C-10.6875 2.0625 -10.6875 2.0625 -10 0 C-6.30581799 -1.231394 -3.7943739 -0.64432764 0 0 Z " fill="#2B87E0" transform="translate(194,122)"/>
<path d="M0 0 C0.66 0 1.32 0 2 0 C5 5.75 5 5.75 5 8 C5.99 8.33 6.98 8.66 8 9 C8 9.66 8 10.32 8 11 C10.31 11.66 12.62 12.32 15 13 C14.67 13.66 14.34 14.32 14 15 C7.8459707 13.42571343 4.75410959 10.54043457 1.1875 5.375 C0 3 0 3 0 0 Z " fill="#4B8FCD" transform="translate(172,204)"/>
<path d="M0 0 C-0.53625 0.391875 -1.0725 0.78375 -1.625 1.1875 C-5.61438973 4.23203427 -9.54304922 7.3509964 -13 11 C-13 9.35 -13 7.7 -13 6 C-12.34 6 -11.68 6 -11 6 C-11 5.01 -11 4.02 -11 3 C-7.14243493 0.84694043 -4.44870215 -0.39253254 0 0 Z " fill="#5F9DE0" transform="translate(214,156)"/>
<path d="M0 0 C0 5.61 0 11.22 0 17 C4.29 17 8.58 17 13 17 C13 17.33 13 17.66 13 18 C8.38 18 3.76 18 -1 18 C-1.03867187 16.30230469 -1.03867187 16.30230469 -1.078125 14.5703125 C-1.13439626 13.08850257 -1.19174382 11.60673323 -1.25 10.125 C-1.26417969 9.37863281 -1.27835938 8.63226563 -1.29296875 7.86328125 C-1.35986341 5.42861619 -1.35986341 5.42861619 -2 2 C-3.90628782 0.39662601 -3.90628782 0.39662601 -6 0 C-3 -1 -3 -1 0 0 Z " fill="#B2B2B2" transform="translate(578,137)"/>
<path d="M0 0 C0.33 0 0.66 0 1 0 C1.19335938 0.83144531 1.38671875 1.66289062 1.5859375 2.51953125 C1.84632813 3.60621094 2.10671875 4.69289062 2.375 5.8125 C2.63023437 6.89144531 2.88546875 7.97039062 3.1484375 9.08203125 C3.88732881 12.15533343 3.88732881 12.15533343 6 15 C6.99 15.33 7.98 15.66 9 16 C9 17.32 9 18.64 9 20 C8.34 20 7.68 20 7 20 C2.43287067 15.28554391 -0.17417265 9.58370882 -0.1875 3 C-0.125625 2.01 -0.06375 1.02 0 0 Z " fill="#0A77E9" transform="translate(173,195)"/>
<path d="M0 0 C-0.969375 0.37125 -1.93875 0.7425 -2.9375 1.125 C-6.2482038 2.70349124 -6.2482038 2.70349124 -7 5.9375 C-7 9.01111206 -6.65893764 10.46280125 -5 13 C-5.99 12.67 -6.98 12.34 -8 12 C-9.26237731 9.47524538 -9.09856404 7.68799534 -9.0625 4.875 C-9.05347656 3.96492187 -9.04445312 3.05484375 -9.03515625 2.1171875 C-9.02355469 1.41851562 -9.01195312 0.71984375 -9 0 C-5.62182575 -0.84454356 -3.32534757 -1.10844919 0 0 Z " fill="#77B1E6" transform="translate(245,139)"/>
<path d="M0 0 C0 0.33 0 0.66 0 1 C-1.65 1 -3.3 1 -5 1 C-5 1.99 -5 2.98 -5 4 C-6.98 4.66 -8.96 5.32 -11 6 C-10.625 3.5625 -10.625 3.5625 -10 1 C-6.78548731 -0.60725635 -3.56387464 -0.05748185 0 0 Z " fill="#368BD6" transform="translate(222,165)"/>
<path d="M0 0 C5.99291003 0.41330414 9.25036599 1.31903365 14 5 C13.01 5.495 13.01 5.495 12 6 C9.92803369 5.26821134 7.8891448 4.44100997 5.875 3.5625 C4.77929688 3.08941406 3.68359375 2.61632812 2.5546875 2.12890625 C1.71164063 1.75636719 0.86859375 1.38382812 0 1 C0 0.67 0 0.34 0 0 Z " fill="#76AFDA" transform="translate(248,121)"/>
<path d="M0 0 C0.9075 0.474375 1.815 0.94875 2.75 1.4375 C7.92493256 3.69953238 13.42797318 3.73466539 19 4 C19 4.33 19 4.66 19 5 C16.39521117 5.0809313 13.79293347 5.14045434 11.1875 5.1875 C10.08051758 5.22520508 10.08051758 5.22520508 8.95117188 5.26367188 C3.49005469 5.33780469 3.49005469 5.33780469 0.98828125 3.61328125 C0 2 0 2 0 0 Z " fill="#4C90D0" transform="translate(207,192)"/>
<path d="M0 0 C2.71042158 2.27325681 3.89276006 3.59578791 4.8125 7.0625 C5 10 5 10 4 13 C3.34 13 2.68 13 2 13 C2.33 10.69 2.66 8.38 3 6 C2.34 6 1.68 6 1 6 C0.67 4.02 0.34 2.04 0 0 Z " fill="#4291DA" transform="translate(262,127)"/>
<path d="M0 0 C2.38672669 2.96283313 4.7353371 5.94270509 7 9 C6.01 9 5.02 9 4 9 C3.67 9.66 3.34 10.32 3 11 C0 4.5 0 4.5 0 0 Z " fill="#4993DE" transform="translate(200,183)"/>
<path d="M0 0 C0.33 0.99 0.66 1.98 1 3 C-1.15859924 6.83750975 -3.28595371 9.61239881 -7 12 C-6.67 10.68 -6.34 9.36 -6 8 C-5.34 8 -4.68 8 -4 8 C-3.71125 7.4225 -3.4225 6.845 -3.125 6.25 C-2.08333333 4.16666667 -1.04166667 2.08333333 0 0 Z " fill="#6AA4D1" transform="translate(266,205)"/>
<path d="M0 0 C0.33 0 0.66 0 1 0 C1.08090971 1.62418745 1.13914995 3.24951745 1.1875 4.875 C1.22230469 5.77992188 1.25710937 6.68484375 1.29296875 7.6171875 C1.19628906 8.40351563 1.09960938 9.18984375 1 10 C0.01 10.66 -0.98 11.32 -2 12 C-1.85831863 10.56208484 -1.71148957 9.1246763 -1.5625 7.6875 C-1.48128906 6.88699219 -1.40007812 6.08648437 -1.31640625 5.26171875 C-1 3 -1 3 0 0 Z " fill="#0877EA" transform="translate(243,171)"/>
<path d="M0 0 C1.32 0.66 2.64 1.32 4 2 C3.67 2.99 3.34 3.98 3 5 C-0.14624993 5.26218749 -1.61837017 5.24754367 -4.3125 3.5 C-4.869375 3.005 -5.42625 2.51 -6 2 C-3.03 2.495 -3.03 2.495 0 3 C0 2.01 0 1.02 0 0 Z " fill="#0679EF" transform="translate(232,152)"/>
<path d="M0 0 C2.4375 0.375 2.4375 0.375 5 1 C6.49297212 3.98594424 6.11755228 6.70853624 6 10 C5.67 10.66 5.34 11.32 5 12 C4.34 11.67 3.68 11.34 3 11 C3.2475 10.113125 3.495 9.22625 3.75 8.3125 C4.35289652 4.8829449 4.35289652 4.8829449 2.0625 2.125 C1.381875 1.42375 0.70125 0.7225 0 0 Z " fill="#3683CF" transform="translate(246,139)"/>
<path d="M0 0 C-5.41538462 4.06153846 -5.41538462 4.06153846 -8.375 3.75 C-8.91125 3.5025 -9.4475 3.255 -10 3 C-6.86618053 -0.60389239 -4.59270471 -1.53090157 0 0 Z " fill="#6B6B6B" transform="translate(463,127)"/>
<path d="M0 0 C0 0.66 0 1.32 0 2 C-7.42857143 2.28571429 -7.42857143 2.28571429 -11 0 C-3.375 -1.125 -3.375 -1.125 0 0 Z " fill="#0976E9" transform="translate(204,217)"/>
<path d="M0 0 C2.64 0.33 5.28 0.66 8 1 C8.33 2.65 8.66 4.3 9 6 C6.03 4.35 3.06 2.7 0 1 C0 0.67 0 0.34 0 0 Z " fill="#4E9CE0" transform="translate(226,156)"/>
<path d="M0 0 C1.32 0.33 2.64 0.66 4 1 C4.33 2.98 4.66 4.96 5 7 C3.0625 6.3125 3.0625 6.3125 1 5 C0.25 2.375 0.25 2.375 0 0 Z " fill="#0E75E0" transform="translate(258,126)"/>
<path d="M0 0 C0.66 0 1.32 0 2 0 C5 5.75 5 5.75 5 8 C2 7 2 7 0.8125 5.125 C0 3 0 3 0 0 Z " fill="#67A4D4" transform="translate(172,204)"/>
<path d="M0 0 C1.5625 1.125 1.5625 1.125 3 3 C2.6875 6.1875 2.6875 6.1875 2 9 C1.34 8.67 0.68 8.34 0 8 C0 5.36 0 2.72 0 0 Z " fill="#5395CF" transform="translate(229,172)"/>
<path d="M0 0 C0.66 0 1.32 0 2 0 C1.50168276 3.68754757 0.89932357 5.60490662 -2 8 C-2 6.35 -2 4.7 -2 3 C-1.34 3 -0.68 3 0 3 C0 2.01 0 1.02 0 0 Z " fill="#4B95DA" transform="translate(203,159)"/>
<path d="M0 0 C0.99 0 1.98 0 3 0 C3 0.66 3 1.32 3 2 C3.99 2.33 4.98 2.66 6 3 C6 3.33 6 3.66 6 4 C4.02 4 2.04 4 0 4 C0 2.68 0 1.36 0 0 Z " fill="#0D78DE" transform="translate(204,192)"/>
<path d="M0 0 C0 1.65 0 3.3 0 5 C-0.66 5 -1.32 5 -2 5 C-2.33 5.99 -2.66 6.98 -3 8 C-4.34882814 5.30234372 -3.80338265 3.84835666 -3 1 C-1 0 -1 0 0 0 Z " fill="#0976EC" transform="translate(255,143)"/>
</svg>
